<?xml version="1.0" encoding="UTF-8" standalone="no"?>
<!DOCTYPE svg PUBLIC "-//W3C//DTD SVG 1.1//EN" "http://www.w3.org/Graphics/SVG/1.1/DTD/svg11.dtd">
<svg width="100%" height="100%" viewBox="0 0 2084 2084" version="1.1" xmlns="http://www.w3.org/2000/svg" xmlns:xlink="http://www.w3.org/1999/xlink" xml:space="preserve" xmlns:serif="http://www.serif.com/" style="fill-rule:evenodd;clip-rule:evenodd;stroke-linejoin:round;stroke-miterlimit:2;">
    <g id="页面-1" serif:id="页面 1" transform="matrix(4.166667,0,0,4.166667,0,0)">
        <rect x="0" y="0" width="500" height="500" style="fill:none;"/>
        <clipPath id="_clip1">
            <rect x="0" y="0" width="500" height="500"/>
        </clipPath>
        <g clip-path="url(#_clip1)">
            <g id="OBJECTS">
                <g transform="matrix(1,0,0,1,499.6328,304.6911)">
                    <path d="M0,-109.738C-0.204,-115.659 -0.511,-121.576 -0.964,-127.488C-2.885,-152.548 -5.678,-181.251 -22.236,-201.297C-36.406,-218.452 -58.356,-222.331 -79.193,-224.689C-105.579,-227.675 -132.089,-229.477 -158.62,-230.49C-212.357,-232.543 -266.146,-231.353 -319.888,-230.158C-347.498,-229.545 -375.126,-228.93 -402.656,-226.738C-436.461,-224.047 -471.232,-219.093 -486.979,-185.311C-501.114,-154.988 -499.359,-116.49 -499.538,-83.867C-499.698,-54.615 -499.795,-25.351 -498.623,3.877C-497.101,41.813 -494.849,91.229 -453.9,107.866C-432.039,116.748 -405.644,118.732 -382.296,120.25C-357.548,121.86 -332.737,121.666 -307.952,122.034C-255.973,122.805 -204.005,121.023 -152.042,119.991C-115.95,119.276 -78.904,118.869 -44.366,107.084C-14.554,96.911 -6.775,64.602 -2.743,36.576C1.263,8.73 0.242,-19.523 0.196,-47.565C0.163,-68.28 0.713,-89.03 0,-109.738" style="fill:url(#_Linear2);fill-rule:nonzero;"/>
                </g>
                <g transform="matrix(1,0,0,1,250.018,169.591)">
                    <path d="M-6.726,118.019C-5.325,120.403 -2.766,121.868 -0.001,121.867C2.765,121.867 5.324,120.402 6.724,118.018C19.488,96.286 47.744,48.179 67.813,14.01C69.501,11.134 69.521,7.574 67.865,4.68C66.208,1.786 63.128,-0 59.793,-0C30.557,0 -30.586,0 -59.824,0C-63.16,-0 -66.24,1.786 -67.896,4.681C-69.553,7.576 -69.532,11.136 -67.842,14.012C-47.732,48.235 -19.488,96.302 -6.726,118.019Z" style="fill:white;fill-rule:nonzero;"/>
                </g>
                <g transform="matrix(-1,0,0,1,500.001,129.465)">
                    <path d="M316.759,169.592C319.226,169.592 321.591,170.572 323.335,172.316C325.079,174.06 326.059,176.425 326.059,178.892L326.059,191.643C326.059,194.11 325.079,196.475 323.335,198.219C321.591,199.963 319.226,200.943 316.759,200.943L183.242,200.943C180.775,200.943 178.41,199.963 176.666,198.219C174.922,196.475 173.942,194.11 173.942,191.643L173.942,178.892C173.942,176.425 174.922,174.06 176.666,172.316C178.41,170.572 180.775,169.592 183.242,169.592L316.759,169.592Z" style="fill:white;"/>
                </g>
            </g>
        </g>
    </g>
    <defs>
        <linearGradient id="_Linear2" x1="0" y1="0" x2="1" y2="0" gradientUnits="userSpaceOnUse" gradientTransform="matrix(500.000263,-500,353.826308,353.826494,-499.632753,195.3089)"><stop offset="0" style="stop-color:rgb(126,101,231);stop-opacity:1"/><stop offset="0.49" style="stop-color:rgb(224,82,105);stop-opacity:1"/><stop offset="1" style="stop-color:rgb(255,76,65);stop-opacity:1"/></linearGradient>
    </defs>
</svg>
